<svg xmlns="http://www.w3.org/2000/svg" viewBox="0 0 85 102" xmlns:v="https://vecta.io/nano"><style><![CDATA[.F{stroke:#000}.G{stroke-miterlimit:10}]]></style><ellipse cx="42.5" cy="51" rx="42.5" ry="51" fill="#fff"/><path d="M27.1 26.6s1.3-12 7.7-14.2c0 0 4.9 1.3 8.1-1.9 0 0 2.4.8 3.6 0 0 0 8.7 2.7 9.3 8 0 0 .4 3.9-1 10.2 0 0-.1.7.4 1 0 0 2.7-1.4 3.8-1.3 0 0 2.1-5.5 2.7-7.8 0 0 .3-4.6-1.1-6.5 0 0-.3-2.4-3.5-4.3 0 0-.1-2-5.7-2.4 0 0-7.1-4.5-9.4-.7l-.4-1.8s-.9-.9-2.2 1L37.7 5l-.2.4s-5.2 1.9-5.7 4.6c0 0-2.2-.4-2.2 0-.1.4.1-.4.1-.4s-2.2 2.4-1.4 3.1l-1.3.2s-1.2 1.1 1 2.4l.1.4s-2.2.5-2.2.8 0-.3 0-.3-.9 3.8.9 5.2c.1 0-.2 4.1.3 5.2zm1.2.7s2-4 8.1-.7c0 0 1.2-1-.9-1.9 0 0-4.3-1.9-7.2.7 0 0-.7.7 0 1.9zm22 .8s-3-5.3-9.3-2.1c0 0-2.2-.6 0-1.6 0 0 7.4-2.8 9.8 3-.1-.1.4.5-.5.7z"/><path d="M27.1 26.6l.4 1.5s-1.3 4.6-.2 7.1c0 0-.7 14.2 10.6 23.6 0 0 4.3.7 7.6-1.3 0 0 7.9-2.8 9.1-7.9 0 0-.2-3.7 1-9.7 0 0 2.8 3.6 3.9-4.6 0 0 3.4-10.2-4.1-5.5" fill="none" class="F G"/><path d="M56.4 34.6s-.4-3.7 1.4-1c0 0 .9 1.6 0 2.9l-1.4-1.9z"/><path d="M29.7 28.8s1.9-2.6 5.6 0c0 0-1.9 3-5.6 0zm12.2-.3s2.1-3.4 5.4-.4c0 0-2.1 2.8-5.4.4z" fill="none" class="F G"/><path d="M32.5 29.7a1.11 1.11 0 0 0 1.1-1.1 1.11 1.11 0 0 0-1.1-1.1 1.11 1.11 0 0 0-1.1 1.1c0 .7.5 1.1 1.1 1.1zm12-.7a1.11 1.11 0 0 0 1.1-1.1 1.11 1.11 0 0 0-1.1-1.1 1.11 1.11 0 0 0-1.1 1.1 1.11 1.11 0 0 0 1.1 1.1z"/><path d="M55.4 39.8s-1.3-4.6-1-5.3c0 0-1.5 5.4-9.6 6.3 0 0-.8 2.1-6.7 1.9 0 0-9.2 2.5-8.5-3.3l-2.4-3s-.3 13.4 10.6 22.3c0 0 10.9.8 16.6-9.2.1.1.7-7.4 1-9.7z" fill="#565656"/><path d="M29.7 39.5s-1.5 5.2 8.5 3.3c0 0 9.2.6 6.8-5.1 0 0-1.3 5-6.1-.7l-1.4.7-2.2-.4c0-.2-4.1 6.3-5.6 2.2z"/><path d="M35.9 27.9s-1.9-2.6-6.6-.3m19 0s-1.7-3.6-6.4-1" fill="none" class="F G"/><path d="M29.7 48.1s-3.8 6-8.3 7.2c0 0-.1.4 0 .7 0 0-4.4 2.4-5.2 3.4 0 0 2.5-.7-12.7 4 0 0 7.7 38.8 41.9 36.4 0 0 26.9-1.1 35.1-35L71.7 62l-3.4-1.9s1.7 1.4-10.2-5.2c0 0-2.6-3.7-2.8-5.6 0 0-.2 4.1-.7 5.1 0 0-4.3 6.2-7.4 16.5 0 0-9-10.6-9.5-12.1.2 0-5.6-3.9-8-10.7z" fill="#333" class="F G"/><path d="M24.2 59.7l1.6 5.1s.4 4.2 8.2 1.7c0 0 .6.8-2.2 4.3L44.5 80m15.9-22.5s2.3 6.7 2.2 8.5l-4.9-.7s4.6 5.3 1.9 7.2c0 0-13.8 6.4-15.8 12.1l1.6 15.3" fill="none" class="F G"/><path d="M42.4 58.6l-.9 5.2 5.8 7 1.7-5.2-1.7-8.6s-1.8 1.9-4.9 1.6z" class="F G"/></svg>