<svg id="logo" viewBox="0 0 90 102" fill="none" xmlns="http://www.w3.org/2000/svg">
<ellipse cx="45.5" cy="51" rx="42.5" ry="51" fill="white"/>
<path d="M30.0695 26.6016C30.0695 26.6016 31.4092 14.6324 37.7506 12.3881C37.7506 12.3881 42.6034 13.7347 45.8783 10.503C45.8783 10.503 48.26 11.3408 49.4509 10.503C49.4509 10.503 58.174 13.1961 58.7694 18.5523C58.7694 18.5523 59.1565 22.4722 57.787 28.756C57.787 28.756 57.6381 29.5041 58.2335 29.7435C58.2335 29.7435 60.913 28.3072 62.0443 28.397C62.0443 28.397 64.1284 22.9211 64.7238 20.617C64.7238 20.617 65.0215 16.0387 63.5925 14.0938C63.5925 14.0938 63.2947 11.6999 60.0794 9.81476C60.0794 9.81476 59.9305 7.77999 54.3334 7.42091C54.3334 7.42091 47.2478 2.87261 44.9553 6.67283L44.5385 4.87745C44.5385 4.87745 43.6752 3.97976 42.3354 5.92476L40.698 5.02707L40.4598 5.47591C40.4598 5.47591 35.2498 7.36107 34.7139 10.0541C34.7139 10.0541 32.5405 9.60529 32.481 10.0541C32.4214 10.503 32.5703 9.60529 32.5703 9.60529C32.5703 9.60529 30.3374 11.9991 31.1413 12.6874L30.0099 12.9268C30.0099 12.9268 28.8191 14.0339 30.9924 15.3206L31.1413 15.7694C31.1413 15.7694 28.9679 16.3081 28.9679 16.6073C28.9679 16.9065 28.9679 16.3081 28.9679 16.3081C28.9679 16.3081 28.0748 20.1382 29.8611 21.4847C29.9206 21.4249 29.6229 25.4645 30.0695 26.6016Z" fill="black"/>
<path d="M31.2604 27.3497C31.2604 27.3497 33.2848 23.3699 39.388 26.6016C39.388 26.6016 40.5789 25.5543 38.4949 24.7164C38.4949 24.7164 34.178 22.7714 31.2604 25.4047C31.2604 25.4047 30.6054 26.063 31.2604 27.3497Z" fill="black"/>
<path d="M53.2914 28.0978C53.2914 28.0978 50.3143 22.7715 43.9729 26.0031C43.9729 26.0031 41.74 25.4047 43.9729 24.3574C43.9729 24.3574 51.3563 21.5147 53.738 27.3497C53.738 27.3497 54.1846 27.9481 53.2914 28.0978Z" fill="black"/>
<path d="M30.0695 26.6016L30.4565 28.0977C30.4565 28.0977 29.1168 32.676 30.2779 35.2194C30.2779 35.2194 29.5634 49.4329 40.8766 58.7988C40.8766 58.7988 45.134 59.487 48.4386 57.4523C48.4386 57.4523 56.2984 54.6096 57.4893 49.5825C57.4893 49.5825 57.2511 45.8421 58.4717 39.8575C58.4717 39.8575 61.2405 43.4483 62.3421 35.2194C62.3421 35.2194 65.7658 25.0456 58.2336 29.7435" stroke="black" stroke-miterlimit="10"/>
<path d="M59.3946 34.5911C59.3946 34.5911 59.0076 30.8507 60.8237 33.5437C60.8237 33.5437 61.7168 35.1297 60.8237 36.4762L59.3946 34.5911Z" fill="black"/>
<path d="M32.6894 28.756C32.6894 28.756 34.565 26.1228 38.2865 28.756C38.2567 28.756 36.4109 31.8381 32.6894 28.756Z" stroke="black" stroke-miterlimit="10"/>
<path d="M44.8958 28.4568C44.8958 28.4568 46.9798 25.0755 50.344 28.0678C50.3143 28.0978 48.2302 30.8507 44.8958 28.4568Z" stroke="black" stroke-miterlimit="10"/>
<path d="M35.4582 29.7435C36.0501 29.7435 36.5299 29.2612 36.5299 28.6663C36.5299 28.0713 36.0501 27.5891 35.4582 27.5891C34.8662 27.5891 34.3864 28.0713 34.3864 28.6663C34.3864 29.2612 34.8662 29.7435 35.4582 29.7435Z" fill="black"/>
<path d="M47.5157 29.0254C48.1077 29.0254 48.5875 28.5431 48.5875 27.9481C48.5875 27.3532 48.1077 26.8709 47.5157 26.8709C46.9238 26.8709 46.4439 27.3532 46.4439 27.9481C46.4439 28.5431 46.9238 29.0254 47.5157 29.0254Z" fill="black"/>
<path d="M58.442 39.8276C58.442 39.8276 57.1022 35.2494 57.4595 34.5013C57.4595 34.5013 55.9709 39.8874 47.9028 40.815C47.9028 40.815 47.1287 42.9097 41.1743 42.7002C41.1743 42.7002 32.0046 45.1838 32.6894 39.4386L30.2779 36.4463C30.2779 36.4463 30.0099 49.8518 40.8766 58.7389C40.8766 58.709 51.8029 59.5169 57.4893 49.5226C57.4595 49.5526 58.0549 42.0718 58.442 39.8276Z" fill="#565656"/>
<path d="M32.6894 39.4685C32.6894 39.4685 31.2008 44.6751 41.1743 42.7301C41.1743 42.7301 50.4036 43.3585 47.9623 37.5833C47.9623 37.5833 46.6226 42.6104 41.8591 36.8353L40.4896 37.5833L38.2865 37.1345C38.2567 37.1345 34.178 43.5679 32.6894 39.4685Z" fill="black"/>
<path d="M38.8521 27.8883C38.8521 27.8883 36.917 25.3149 32.213 27.589" stroke="black" stroke-miterlimit="10"/>
<path d="M51.2967 27.619C51.2967 27.619 49.57 23.9983 44.8958 26.6016" stroke="black" stroke-miterlimit="10"/>
<path d="M32.6894 48.1462C32.6894 48.1462 28.8786 54.1308 24.3533 55.3277C24.3533 55.3277 24.2044 55.7766 24.3533 56.0159C24.3533 56.0159 19.9471 58.4098 19.1432 59.3972C19.1432 59.3972 21.6738 58.6492 6.49025 63.377C6.49025 63.377 14.1714 102.217 48.3493 99.8233C48.3493 99.8233 75.263 98.6862 83.4502 64.8732L74.7271 62.0305L71.3629 60.0855C71.3629 60.0855 73.0599 61.5218 61.181 54.8489C61.181 54.8489 58.6206 51.1684 58.4122 49.2234C58.4122 49.2234 58.174 53.3528 57.6679 54.3103C57.6679 54.3103 53.351 60.5343 50.2845 70.8578C50.2845 70.8578 41.2637 60.2351 40.8171 58.7988C40.8766 58.7689 35.1307 54.9387 32.6894 48.1462Z" fill="#333333" stroke="black" stroke-miterlimit="10"/>
<path d="M27.2411 59.6666L28.8191 64.7535C28.8191 64.7535 29.2656 68.9128 37.0063 66.489C37.0063 66.489 37.6017 67.3269 34.7734 70.768L47.5157 80.0442" stroke="black" stroke-miterlimit="10"/>
<path d="M63.4138 57.4822C63.4138 57.4822 65.736 64.2149 65.5872 65.9504L60.7344 65.2622C60.7344 65.2622 65.349 70.5885 62.61 72.4437C62.61 72.4437 48.7959 78.8772 46.7715 84.5027L48.3791 99.7635" stroke="black" stroke-miterlimit="10"/>
<path d="M45.4019 58.5893L44.5386 63.8259L50.3143 70.7979C50.3143 70.7979 51.4456 67.2072 52.041 65.6212L50.3143 57.0333C50.3143 57.0333 48.4684 58.9185 45.4019 58.5893Z" fill="black" stroke="black" stroke-miterlimit="10"/>
</svg>
